<?xml version="1.0" encoding="utf-8"?>
<!-- Generator: Adobe Illustrator 20.1.0, SVG Export Plug-In . SVG Version: 6.00 Build 0)  -->
<svg version="1.1" id="Layer_1" xmlns="http://www.w3.org/2000/svg" xmlns:xlink="http://www.w3.org/1999/xlink" x="0px" y="0px"
	 width="104px" height="44px" viewBox="0 0 104 44" style="enable-background:new 0 0 104 44;" xml:space="preserve">
<style type="text/css">
	.st0{fill:#010F54;}
	.st1{display:none;}
	.st2{display:inline;fill:#FFFFFF;}
	.st3{display:inline;}
	.st4{fill:#FFFFFF;}
	.st5{display:inline;fill:#010F54;}
	.st6{fill:#0000A5;}
	.st7{fill:#E1593F;}
	.st8{fill:#FFFFFF;stroke:#E5E5E5;stroke-width:0.1417;stroke-miterlimit:10;}
	.st9{fill:none;stroke:#E5FFFF;stroke-width:4.724424e-02;stroke-miterlimit:10;}
	.st10{fill:#FF7000;}
	.st11{fill:#FF4000;}
	.st12{opacity:0.16;}
	.st13{fill:none;stroke:#8CC8FF;stroke-width:0.1417;stroke-miterlimit:10;}
	.st14{fill:none;stroke:#8CC8FF;stroke-width:0.1417;stroke-miterlimit:10;stroke-dasharray:1.4331,2.8661;}
	.st15{fill:#BEE0FF;}
	.st16{fill:none;stroke:#FF783C;stroke-width:0.2268;stroke-miterlimit:10;}
	.st17{display:inline;fill:#FF4000;}
</style>
<g>
	<polygon class="st4" points="104,10.2 104,0 84.2,0 84.2,0 74.3,0 74.3,0 74.3,0 74.3,10.2 74.3,10.2 74.3,16.9 74.3,16.9 
		74.3,27.1 74.3,27.1 74.3,29.3 51.2,0 41.3,0 41.3,44 51.2,44 51.2,15.4 74.3,44 74.3,44 84.2,44 84.2,27.1 99,27.1 99,16.9 
		84.2,16.9 84.2,10.2 	"/>
	<rect x="0" y="0" class="st11" width="34.7" height="10.2"/>
	<rect x="11.6" y="16.9" class="st11" width="23.1" height="10.2"/>
	<rect x="23.1" y="33.8" class="st11" width="11.6" height="10.2"/>
</g>
</svg>
