<?xml version="1.0" encoding="utf-8"?>
<!-- Generator: Adobe Illustrator 20.1.0, SVG Export Plug-In . SVG Version: 6.00 Build 0)  -->
<svg version="1.1" id="Layer_1" xmlns="http://www.w3.org/2000/svg" xmlns:xlink="http://www.w3.org/1999/xlink" x="0px" y="0px"
	 width="40px" height="40px" viewBox="0 0 40 40" style="enable-background:new 0 0 40 40;" xml:space="preserve">
<style type="text/css">
	.st0{fill:url(#SVGID_1_);}
</style>
<linearGradient id="SVGID_1_" gradientUnits="userSpaceOnUse" x1="1.1224" y1="20" x2="38.8776" y2="20">
	<stop  offset="0" style="stop-color:#FF7000"/>
	<stop  offset="1" style="stop-color:#FF4000"/>
</linearGradient>
<path class="st0" d="M4.8,12.1C5.3,11.5,6,11,6.8,11c0.8,0,1.5,0.4,2,1.1c0.4,0.6,0.7,1.4,0.7,2.3c0,0.9-0.3,1.7-0.7,2.3l0,0
	c-0.5,0.7-1.2,1.1-2,1.1s-1.5-0.4-2-1.1c-0.4-0.6-0.7-1.4-0.7-2.3C4.1,13.6,4.3,12.8,4.8,12.1L4.8,12.1z M6.8,12.4
	c-0.3,0-0.6,0.2-0.9,0.5l0,0c-0.3,0.4-0.4,0.9-0.4,1.5c0,0.6,0.2,1.2,0.5,1.6c0.2,0.3,0.5,0.5,0.9,0.5c0.3,0,0.6-0.2,0.9-0.5l0,0
	c0.3-0.4,0.4-0.9,0.4-1.5c0-0.6-0.2-1.2-0.5-1.6C7.4,12.6,7.1,12.4,6.8,12.4z M1.1,11.7c0-0.4,0.3-0.7,0.7-0.7
	c0.4,0,0.7,0.3,0.7,0.7v5.6c0,0.4-0.3,0.7-0.7,0.7c-0.4,0-0.7-0.3-0.7-0.7V11.7z M14.6,12.1c0.5-0.7,1.2-1.1,2-1.1
	c0.8,0,1.5,0.4,2,1.1c0.4,0.6,0.7,1.4,0.7,2.3c0,0.9-0.3,1.7-0.7,2.3l0,0c-0.5,0.7-1.2,1.1-2,1.1c-0.8,0-1.5-0.4-2-1.1
	c-0.4-0.6-0.7-1.4-0.7-2.3C13.9,13.6,14.1,12.8,14.6,12.1L14.6,12.1z M16.6,12.4c-0.3,0-0.6,0.2-0.9,0.5l0,0
	c-0.3,0.4-0.4,0.9-0.4,1.5c0,0.6,0.2,1.2,0.5,1.6c0.2,0.3,0.5,0.5,0.9,0.5s0.6-0.2,0.9-0.5l0,0c0.3-0.4,0.4-0.9,0.4-1.5
	c0-0.6-0.2-1.2-0.5-1.6C17.2,12.6,16.9,12.4,16.6,12.4z M10.9,11.7c0-0.4,0.3-0.7,0.7-0.7c0.4,0,0.7,0.3,0.7,0.7v5.6
	c0,0.4-0.3,0.7-0.7,0.7c-0.4,0-0.7-0.3-0.7-0.7V11.7z M24.4,12.1c0.5-0.7,1.2-1.1,2-1.1c0.8,0,1.5,0.4,2,1.1
	c0.4,0.6,0.7,1.4,0.7,2.3c0,0.9-0.3,1.7-0.7,2.3c-0.5,0.7-1.2,1.1-2,1.1c-0.8,0-1.5-0.4-2-1.1c-0.4-0.6-0.7-1.4-0.7-2.3
	C23.7,13.6,24,12.8,24.4,12.1L24.4,12.1z M26.4,12.4c-0.3,0-0.6,0.2-0.9,0.5l0,0c-0.3,0.4-0.4,0.9-0.4,1.5c0,0.6,0.2,1.2,0.5,1.6
	c0.2,0.3,0.5,0.5,0.9,0.5c0.3,0,0.6-0.2,0.9-0.5c0.3-0.4,0.5-0.9,0.5-1.6c0-0.6-0.2-1.2-0.5-1.6C27,12.6,26.7,12.4,26.4,12.4z
	 M20.7,11.7c0-0.4,0.3-0.7,0.7-0.7c0.4,0,0.7,0.3,0.7,0.7v5.6c0,0.4-0.3,0.7-0.7,0.7c-0.4,0-0.7-0.3-0.7-0.7V11.7z M34.2,12.1
	c0.5-0.7,1.2-1.1,2-1.1c0.8,0,1.5,0.4,2,1.1c0.4,0.6,0.7,1.4,0.7,2.3c0,0.9-0.3,1.7-0.7,2.3l0,0c-0.5,0.7-1.2,1.1-2,1.1
	c-0.8,0-1.5-0.4-2-1.1c-0.4-0.6-0.7-1.4-0.7-2.3S33.8,12.7,34.2,12.1z M36.2,12.4c-0.3,0-0.6,0.2-0.9,0.5c-0.3,0.4-0.5,0.9-0.5,1.6
	c0,0.6,0.2,1.2,0.5,1.6c0.2,0.3,0.5,0.5,0.9,0.5c0.3,0,0.6-0.2,0.9-0.5l0,0c0.3-0.4,0.4-0.9,0.4-1.5c0-0.6-0.2-1.2-0.5-1.6
	C36.8,12.6,36.5,12.4,36.2,12.4z M30.5,11.7c0-0.4,0.3-0.7,0.7-0.7c0.4,0,0.7,0.3,0.7,0.7v5.6c0,0.4-0.3,0.7-0.7,0.7
	c-0.4,0-0.7-0.3-0.7-0.7V11.7z M4.8,23.2c0.5-0.7,1.2-1.1,2-1.1c0.8,0,1.5,0.4,2,1.1c0.4,0.6,0.7,1.4,0.7,2.3c0,0.9-0.3,1.7-0.7,2.3
	l0,0c-0.5,0.7-1.2,1.1-2,1.1s-1.5-0.4-2-1.1c-0.4-0.6-0.7-1.4-0.7-2.3C4.1,24.6,4.3,23.8,4.8,23.2L4.8,23.2z M6.8,23.4
	c-0.3,0-0.6,0.2-0.9,0.5l0,0c-0.3,0.4-0.4,0.9-0.4,1.5c0,0.6,0.2,1.2,0.5,1.5c0.2,0.3,0.5,0.5,0.9,0.5c0.3,0,0.6-0.2,0.9-0.5l0,0
	c0.3-0.4,0.4-0.9,0.4-1.5c0-0.6-0.2-1.2-0.5-1.6C7.4,23.6,7.1,23.4,6.8,23.4z M1.1,22.7c0-0.4,0.3-0.7,0.7-0.7
	c0.4,0,0.7,0.3,0.7,0.7v5.6c0,0.4-0.3,0.7-0.7,0.7c-0.4,0-0.7-0.3-0.7-0.7V22.7z M14.6,23.2c0.5-0.7,1.2-1.1,2-1.1
	c0.8,0,1.5,0.4,2,1.1c0.4,0.6,0.7,1.4,0.7,2.3c0,0.9-0.3,1.7-0.7,2.3l0,0c-0.5,0.7-1.2,1.1-2,1.1c-0.8,0-1.5-0.4-2-1.1
	c-0.4-0.6-0.7-1.4-0.7-2.3C13.9,24.6,14.1,23.8,14.6,23.2L14.6,23.2z M16.6,23.4c-0.3,0-0.6,0.2-0.9,0.5l0,0
	c-0.3,0.4-0.4,0.9-0.4,1.5c0,0.6,0.2,1.2,0.5,1.5c0.2,0.3,0.5,0.5,0.9,0.5s0.6-0.2,0.9-0.5l0,0c0.3-0.4,0.4-0.9,0.4-1.5
	c0-0.6-0.2-1.2-0.5-1.6C17.2,23.6,16.9,23.4,16.6,23.4z M10.9,22.7c0-0.4,0.3-0.7,0.7-0.7c0.4,0,0.7,0.3,0.7,0.7v5.6
	c0,0.4-0.3,0.7-0.7,0.7c-0.4,0-0.7-0.3-0.7-0.7V22.7z M24.4,23.2c0.5-0.7,1.2-1.1,2-1.1c0.8,0,1.5,0.4,2,1.1
	c0.4,0.6,0.7,1.4,0.7,2.3c0,0.9-0.3,1.7-0.7,2.3c-0.5,0.7-1.2,1.1-2,1.1c-0.8,0-1.5-0.4-2-1.1c-0.4-0.6-0.7-1.4-0.7-2.3
	C23.7,24.6,24,23.8,24.4,23.2L24.4,23.2z M26.4,23.4c-0.3,0-0.6,0.2-0.9,0.5l0,0c-0.3,0.4-0.4,0.9-0.4,1.5c0,0.6,0.2,1.2,0.5,1.5
	c0.2,0.3,0.5,0.5,0.9,0.5c0.3,0,0.6-0.2,0.9-0.5c0.3-0.4,0.5-0.9,0.5-1.5c0-0.6-0.2-1.2-0.5-1.6C27,23.6,26.7,23.4,26.4,23.4z
	 M20.7,22.7c0-0.4,0.3-0.7,0.7-0.7c0.4,0,0.7,0.3,0.7,0.7v5.6c0,0.4-0.3,0.7-0.7,0.7c-0.4,0-0.7-0.3-0.7-0.7V22.7z M34.2,23.2
	c0.5-0.7,1.2-1.1,2-1.1c0.8,0,1.5,0.4,2,1.1c0.4,0.6,0.7,1.4,0.7,2.3c0,0.9-0.3,1.7-0.7,2.3l0,0c-0.5,0.7-1.2,1.1-2,1.1
	c-0.8,0-1.5-0.4-2-1.1c-0.4-0.6-0.7-1.4-0.7-2.3C33.5,24.6,33.8,23.8,34.2,23.2z M36.2,23.4c-0.3,0-0.6,0.2-0.9,0.5
	c-0.3,0.4-0.5,0.9-0.5,1.6c0,0.6,0.2,1.2,0.5,1.5c0.2,0.3,0.5,0.5,0.9,0.5c0.3,0,0.6-0.2,0.9-0.5l0,0c0.3-0.4,0.4-0.9,0.4-1.5
	c0-0.6-0.2-1.2-0.5-1.6C36.8,23.6,36.5,23.4,36.2,23.4z M30.5,22.7c0-0.4,0.3-0.7,0.7-0.7c0.4,0,0.7,0.3,0.7,0.7v5.6
	c0,0.4-0.3,0.7-0.7,0.7c-0.4,0-0.7-0.3-0.7-0.7V22.7z M4.8,34.2c0.5-0.7,1.2-1.1,2-1.1c0.8,0,1.5,0.4,2,1.1c0.4,0.6,0.7,1.4,0.7,2.3
	c0,0.9-0.3,1.7-0.7,2.3l0,0c-0.5,0.7-1.2,1.1-2,1.1s-1.5-0.4-2-1.1c-0.4-0.6-0.7-1.4-0.7-2.3C4.1,35.7,4.3,34.8,4.8,34.2L4.8,34.2z
	 M6.8,34.5c-0.3,0-0.6,0.2-0.9,0.5l0,0c-0.3,0.4-0.4,0.9-0.4,1.5c0,0.6,0.2,1.2,0.5,1.5c0.2,0.3,0.5,0.5,0.9,0.5
	c0.3,0,0.6-0.2,0.9-0.5l0,0c0.3-0.4,0.4-0.9,0.4-1.5c0-0.6-0.2-1.2-0.5-1.6C7.4,34.7,7.1,34.5,6.8,34.5z M1.1,33.8
	c0-0.4,0.3-0.7,0.7-0.7c0.4,0,0.7,0.3,0.7,0.7v5.6c0,0.4-0.3,0.7-0.7,0.7c-0.4,0-0.7-0.3-0.7-0.7V33.8z M14.6,34.2
	c0.5-0.7,1.2-1.1,2-1.1c0.8,0,1.5,0.4,2,1.1c0.4,0.6,0.7,1.4,0.7,2.3c0,0.9-0.3,1.7-0.7,2.3l0,0c-0.5,0.7-1.2,1.1-2,1.1
	c-0.8,0-1.5-0.4-2-1.1c-0.4-0.6-0.7-1.4-0.7-2.3C13.9,35.7,14.1,34.8,14.6,34.2L14.6,34.2z M16.6,34.5c-0.3,0-0.6,0.2-0.9,0.5l0,0
	c-0.3,0.4-0.4,0.9-0.4,1.5c0,0.6,0.2,1.2,0.5,1.5c0.2,0.3,0.5,0.5,0.9,0.5s0.6-0.2,0.9-0.5l0,0c0.3-0.4,0.4-0.9,0.4-1.5
	c0-0.6-0.2-1.2-0.5-1.6C17.2,34.7,16.9,34.5,16.6,34.5z M10.9,33.8c0-0.4,0.3-0.7,0.7-0.7c0.4,0,0.7,0.3,0.7,0.7v5.6
	c0,0.4-0.3,0.7-0.7,0.7c-0.4,0-0.7-0.3-0.7-0.7V33.8z M24.4,34.2c0.5-0.7,1.2-1.1,2-1.1c0.8,0,1.5,0.4,2,1.1
	c0.4,0.6,0.7,1.4,0.7,2.3c0,0.9-0.3,1.7-0.7,2.3c-0.5,0.7-1.2,1.1-2,1.1c-0.8,0-1.5-0.4-2-1.1c-0.4-0.6-0.7-1.4-0.7-2.3
	C23.7,35.7,24,34.8,24.4,34.2L24.4,34.2z M26.4,34.5c-0.3,0-0.6,0.2-0.9,0.5l0,0c-0.3,0.4-0.4,0.9-0.4,1.5c0,0.6,0.2,1.2,0.5,1.5
	c0.2,0.3,0.5,0.5,0.9,0.5c0.3,0,0.6-0.2,0.9-0.5c0.3-0.4,0.5-0.9,0.5-1.5c0-0.6-0.2-1.2-0.5-1.6C27,34.7,26.7,34.5,26.4,34.5z
	 M20.7,33.8c0-0.4,0.3-0.7,0.7-0.7c0.4,0,0.7,0.3,0.7,0.7v5.6c0,0.4-0.3,0.7-0.7,0.7c-0.4,0-0.7-0.3-0.7-0.7V33.8z M34.2,34.2
	c0.5-0.7,1.2-1.1,2-1.1c0.8,0,1.5,0.4,2,1.1c0.4,0.6,0.7,1.4,0.7,2.3c0,0.9-0.3,1.7-0.7,2.3l0,0c-0.5,0.7-1.2,1.1-2,1.1
	c-0.8,0-1.5-0.4-2-1.1c-0.4-0.6-0.7-1.4-0.7-2.3C33.5,35.6,33.8,34.8,34.2,34.2z M36.2,34.5c-0.3,0-0.6,0.2-0.9,0.5
	c-0.3,0.4-0.5,0.9-0.5,1.6c0,0.6,0.2,1.2,0.5,1.5c0.2,0.3,0.5,0.5,0.9,0.5c0.3,0,0.6-0.2,0.9-0.5l0,0c0.3-0.4,0.4-0.9,0.4-1.5
	c0-0.6-0.2-1.2-0.5-1.6C36.8,34.7,36.5,34.5,36.2,34.5z M30.5,33.8c0-0.4,0.3-0.7,0.7-0.7c0.4,0,0.7,0.3,0.7,0.7v5.6
	c0,0.4-0.3,0.7-0.7,0.7c-0.4,0-0.7-0.3-0.7-0.7V33.8z M4.8,1.1C5.3,0.4,6,0,6.8,0c0.8,0,1.5,0.4,2,1.1c0.4,0.6,0.7,1.4,0.7,2.3
	c0,0.9-0.3,1.7-0.7,2.3l0,0c-0.5,0.7-1.2,1.1-2,1.1s-1.5-0.4-2-1.1C4.4,5.2,4.1,4.4,4.1,3.5C4.1,2.6,4.3,1.8,4.8,1.1L4.8,1.1z
	 M6.8,1.4c-0.3,0-0.6,0.2-0.9,0.5l0,0C5.6,2.3,5.4,2.9,5.4,3.5c0,0.6,0.2,1.2,0.5,1.6c0.2,0.3,0.5,0.5,0.9,0.5
	c0.3,0,0.6-0.2,0.9-0.5l0,0c0.3-0.4,0.4-0.9,0.4-1.5c0-0.6-0.2-1.2-0.5-1.6C7.4,1.6,7.1,1.4,6.8,1.4z M1.1,0.7C1.1,0.3,1.4,0,1.8,0
	c0.4,0,0.7,0.3,0.7,0.7v5.6c0,0.4-0.3,0.7-0.7,0.7c-0.4,0-0.7-0.3-0.7-0.7V0.7z M14.6,1.1c0.5-0.7,1.2-1.1,2-1.1
	c0.8,0,1.5,0.4,2,1.1c0.4,0.6,0.7,1.4,0.7,2.3c0,0.9-0.3,1.7-0.7,2.3l0,0c-0.5,0.7-1.2,1.1-2,1.1c-0.8,0-1.5-0.4-2-1.1
	c-0.4-0.6-0.7-1.4-0.7-2.3C13.9,2.6,14.1,1.8,14.6,1.1L14.6,1.1z M16.6,1.4c-0.3,0-0.6,0.2-0.9,0.5l0,0c-0.3,0.4-0.4,0.9-0.4,1.5
	c0,0.6,0.2,1.2,0.5,1.6c0.2,0.3,0.5,0.5,0.9,0.5s0.6-0.2,0.9-0.5l0,0c0.3-0.4,0.4-0.9,0.4-1.5c0-0.6-0.2-1.2-0.5-1.6
	C17.2,1.6,16.9,1.4,16.6,1.4z M10.9,0.7c0-0.4,0.3-0.7,0.7-0.7c0.4,0,0.7,0.3,0.7,0.7v5.6c0,0.4-0.3,0.7-0.7,0.7
	c-0.4,0-0.7-0.3-0.7-0.7V0.7z M24.4,1.1c0.5-0.7,1.2-1.1,2-1.1c0.8,0,1.5,0.4,2,1.1c0.4,0.6,0.7,1.4,0.7,2.3s-0.3,1.7-0.7,2.3
	c-0.5,0.7-1.2,1.1-2,1.1c-0.8,0-1.5-0.4-2-1.1c-0.4-0.6-0.7-1.4-0.7-2.3C23.7,2.6,24,1.8,24.4,1.1L24.4,1.1z M26.4,1.4
	c-0.3,0-0.6,0.2-0.9,0.5l0,0c-0.3,0.4-0.4,0.9-0.4,1.5c0,0.6,0.2,1.2,0.5,1.6c0.2,0.3,0.5,0.5,0.9,0.5c0.3,0,0.6-0.2,0.9-0.5
	c0.3-0.4,0.5-0.9,0.5-1.6c0-0.6-0.2-1.2-0.5-1.6C27,1.6,26.7,1.4,26.4,1.4z M20.7,0.7C20.7,0.3,21,0,21.4,0c0.4,0,0.7,0.3,0.7,0.7
	v5.6c0,0.4-0.3,0.7-0.7,0.7c-0.4,0-0.7-0.3-0.7-0.7V0.7z M34.2,1.1c0.5-0.7,1.2-1.1,2-1.1c0.8,0,1.5,0.4,2,1.1
	c0.4,0.6,0.7,1.4,0.7,2.3c0,0.9-0.3,1.7-0.7,2.3l0,0c-0.5,0.7-1.2,1.1-2,1.1c-0.8,0-1.5-0.4-2-1.1c-0.4-0.6-0.7-1.4-0.7-2.3
	S33.8,1.7,34.2,1.1z M36.2,1.4c-0.3,0-0.6,0.2-0.9,0.5c-0.3,0.4-0.5,0.9-0.5,1.6c0,0.6,0.2,1.2,0.5,1.6c0.2,0.3,0.5,0.5,0.9,0.5
	c0.3,0,0.6-0.2,0.9-0.5l0,0c0.3-0.4,0.4-0.9,0.4-1.5c0-0.6-0.2-1.2-0.5-1.6C36.8,1.6,36.5,1.4,36.2,1.4z M30.5,0.7
	c0-0.4,0.3-0.7,0.7-0.7c0.4,0,0.7,0.3,0.7,0.7v5.6c0,0.4-0.3,0.7-0.7,0.7c-0.4,0-0.7-0.3-0.7-0.7V0.7z"/>
</svg>
