<?xml version="1.0" encoding="utf-8"?>
<!-- Generator: Adobe Illustrator 20.1.0, SVG Export Plug-In . SVG Version: 6.00 Build 0)  -->
<svg version="1.1" id="Layer_1" xmlns="http://www.w3.org/2000/svg" xmlns:xlink="http://www.w3.org/1999/xlink" x="0px" y="0px"
	 width="40px" height="40px" viewBox="0 0 40 40" style="enable-background:new 0 0 40 40;" xml:space="preserve">
<style type="text/css">
	.st0{fill:url(#SVGID_1_);}
</style>
<linearGradient id="SVGID_1_" gradientUnits="userSpaceOnUse" x1="2" y1="20" x2="38" y2="20">
	<stop  offset="0" style="stop-color:#FF7000"/>
	<stop  offset="1" style="stop-color:#FF4000"/>
</linearGradient>
<path class="st0" d="M20,3.2c2.8,1.3,9.7,4.4,15.1,5c-0.3,5.8-2.4,23.2-15.2,28.8C7.2,31.3,5.2,14,4.9,8.2C10.3,7.6,17.2,4.5,20,3.2
	 M20,0l-0.3,0.2c-0.1,0-10.3,5.3-16.5,5.3c-0.1,0-0.3,0-0.4,0L2,5.4l0,0.8c0,0.3-0.4,26.6,17.7,33.7l0.2,0.1l0.2-0.1
	C38.2,32.9,38,6.5,38,6.2l0-0.8l-0.8,0c-0.1,0-0.3,0-0.4,0c-6.1,0-16.4-5.2-16.5-5.3L20,0L20,0z M18.9,11.2c0-0.7,0.3-1.1,1.1-1.1
	s1.1,0.4,1.1,1.1v2.7h3.4c0.6,0,1.1,0.3,1.1,1.1s-0.5,1.1-1.1,1.1h-7.9v1.6h7.9c0.6,0,1.1,0.5,1.1,1.1v3.9c0,0.6-0.5,1.1-1.1,1.1
	h-3.4v2.7c0,0.7-0.3,1.1-1.1,1.1s-1.1-0.4-1.1-1.1v-2.7h-3.4c-0.6,0-1.1-0.3-1.1-1.1s0.5-1.1,1.1-1.1h7.9v-1.6h-7.9
	c-0.6,0-1.1-0.5-1.1-1.1v-3.9c0-0.6,0.5-1.1,1.1-1.1h3.4V11.2z"/>
</svg>
