<?xml version="1.0" encoding="utf-8"?>
<!-- Generator: Adobe Illustrator 20.1.0, SVG Export Plug-In . SVG Version: 6.00 Build 0)  -->
<svg version="1.1" id="Layer_1" xmlns="http://www.w3.org/2000/svg" xmlns:xlink="http://www.w3.org/1999/xlink" x="0px" y="0px"
	 width="40px" height="40px" viewBox="0 0 40 40" style="enable-background:new 0 0 40 40;" xml:space="preserve">
<style type="text/css">
	.st0{fill:url(#SVGID_1_);}
</style>
<g>
	<linearGradient id="SVGID_1_" gradientUnits="userSpaceOnUse" x1="4.882813e-04" y1="20" x2="40.0005" y2="20">
		<stop  offset="0" style="stop-color:#FF7000"/>
		<stop  offset="1" style="stop-color:#FF4000"/>
	</linearGradient>
	<path class="st0" d="M30.4,22.1C30.4,22.1,30.4,22.1,30.4,22.1c0,0,0.1,0,0.1,0l7.1,7.1c0,0.1,0,0.1,0,0.1c0,0,0,0,0,0l0,0
		l-2.1,2.1c-0.1,0-0.1,0-0.1,0c0,0-0.1,0-0.1,0l-7.1-7.1l0,0l0,0c0,0,0,0,0,0c0,0,0-0.1,0.1-0.2l0.2-0.2l1.7-1.7
		C30.3,22.2,30.4,22.1,30.4,22.1 M19.6,36.4c0.3,0,0.6,0.3,0.6,0.6v0.6h-3.1c0-0.2,0.1-0.4,0.1-0.6c0-0.2,0-0.4-0.1-0.6h1.6H19.6
		 M20.9,0c-0.2,0-0.3,0-0.5,0.1c-0.2,0.1-0.3,0.1-0.4,0.2c-0.1,0.1-0.3,0.2-0.4,0.3c-0.2,0.1-0.3,0.3-0.4,0.3
		C19.1,1,19,1.1,18.8,1.3c-0.2,0.2-0.3,0.3-0.3,0.4C18.1,2,18,2.5,18,3c0,0.1,0,0.2,0,0.4c0,0.1,0.1,0.2,0.1,0.3
		c0.1,0.1,0.1,0.2,0.1,0.3c0,0.1,0.1,0.2,0.2,0.3c0.1,0.1,0.2,0.2,0.2,0.2c0,0,0.1,0.1,0.2,0.3s0.2,0.2,0.2,0.2
		c-0.2-0.2-0.4-0.3-0.7-0.3c-0.3,0-0.5,0.1-0.7,0.3l-6.8,6.8c-0.2,0.2-0.3,0.4-0.3,0.7c0,0.3,0.1,0.5,0.3,0.7c0,0,0,0,0,0
		c0,0,0,0,0,0c0,0,0,0,0,0c0,0,0,0,0,0c0,0-0.1-0.1-0.2-0.2c-0.1-0.1-0.2-0.2-0.3-0.2s-0.1-0.1-0.2-0.2c-0.1-0.1-0.2-0.2-0.3-0.2
		c-0.1,0-0.2-0.1-0.3-0.1C9.6,12,9.5,12,9.4,12c-0.1,0-0.2,0-0.4,0c-0.5,0-0.9,0.2-1.3,0.5c0,0-0.2,0.1-0.4,0.3
		C7.1,13,7,13.1,6.9,13.2c-0.1,0.1-0.2,0.2-0.3,0.4c-0.1,0.2-0.2,0.3-0.3,0.4c-0.1,0.1-0.1,0.3-0.2,0.4C6.1,14.6,6,14.7,6,14.9
		c0,0.5,0.2,1,0.5,1.3l8,8c0.4,0.4,0.8,0.5,1.3,0.5c0.2,0,0.3,0,0.5-0.1c0.2-0.1,0.3-0.1,0.4-0.2c0.1-0.1,0.3-0.2,0.4-0.3
		c0.2-0.1,0.3-0.3,0.4-0.3c0.1-0.1,0.2-0.2,0.4-0.4c0.2-0.2,0.3-0.3,0.3-0.4c0.4-0.4,0.5-0.8,0.5-1.3c0-0.1,0-0.2,0-0.4
		c0-0.1-0.1-0.2-0.1-0.3c-0.1-0.1-0.1-0.2-0.1-0.3c0-0.1-0.1-0.2-0.2-0.3c-0.1-0.1-0.2-0.2-0.2-0.2s-0.1-0.1-0.2-0.3
		c-0.1-0.1-0.2-0.2-0.2-0.2c0,0,0,0,0,0c0,0,0,0,0,0c0,0,0,0,0,0c0,0,0,0,0,0c0.2,0.2,0.4,0.3,0.7,0.3c0.3,0,0.5-0.1,0.7-0.3
		l2.5-2.5l5,5c-0.6,0.6-0.8,1.2-0.8,1.9c0,0.7,0.2,1.3,0.7,1.8l7.1,7.1c0.5,0.5,1.1,0.7,1.8,0.7c0.7,0,1.3-0.2,1.8-0.7l2.1-2.1
		c0.5-0.5,0.7-1.1,0.7-1.8c0-0.7-0.2-1.3-0.7-1.8l-7.1-7.1c-0.5-0.5-1.1-0.7-1.8-0.7c-0.7,0-1.3,0.3-1.9,0.8l-5-5l2.5-2.5
		c0.2-0.2,0.3-0.4,0.3-0.7c0-0.3-0.1-0.5-0.3-0.7c0,0,0.1,0.1,0.2,0.2s0.2,0.2,0.3,0.2c0,0,0.1,0.1,0.2,0.2c0.1,0.1,0.2,0.2,0.3,0.2
		c0.1,0,0.2,0.1,0.3,0.1c0.1,0.1,0.2,0.1,0.3,0.1c0.1,0,0.2,0,0.4,0c0.5,0,0.9-0.2,1.3-0.5c0,0,0.2-0.1,0.4-0.3
		c0.2-0.2,0.3-0.3,0.4-0.4c0.1-0.1,0.2-0.2,0.3-0.4c0.1-0.2,0.2-0.3,0.3-0.4c0.1-0.1,0.1-0.3,0.2-0.4c0.1-0.2,0.1-0.3,0.1-0.5
		c0-0.5-0.2-1-0.5-1.3l-8-8C21.9,0.2,21.5,0,20.9,0L20.9,0z M16.9,30.5h-0.9c0,0,0,0,0,0H6.5c0,0,0,0,0,0H5.6
		c-0.7,0-1.3,0.6-1.3,1.3v1.3h13.9v-1.3C18.2,31.1,17.7,30.5,16.9,30.5L16.9,30.5z M19.6,34h-0.9H3.9H3c-1.5,0-2.8,1.1-3,2.6h14.3
		c0.2,0,0.4,0.2,0.4,0.4c0,0.2-0.2,0.4-0.4,0.4H0V40h22.2h0.4h17c0.2,0,0.4-0.2,0.4-0.4c0-0.2-0.2-0.4-0.4-0.4h-17V37
		C22.6,35.3,21.2,34,19.6,34L19.6,34z"/>
</g>
</svg>
