<?xml version="1.0" encoding="utf-8"?>
<!-- Generator: Adobe Illustrator 20.1.0, SVG Export Plug-In . SVG Version: 6.00 Build 0)  -->
<svg version="1.1" id="Layer_1" xmlns="http://www.w3.org/2000/svg" xmlns:xlink="http://www.w3.org/1999/xlink" x="0px" y="0px"
	 width="40px" height="40px" viewBox="0 0 40 40" style="enable-background:new 0 0 40 40;" xml:space="preserve">
<style type="text/css">
	.st0{fill:url(#SVGID_1_);}
</style>
<title></title>
<linearGradient id="SVGID_1_" gradientUnits="userSpaceOnUse" x1="4.9997" y1="19.9998" x2="36.9997" y2="19.9998">
	<stop  offset="0" style="stop-color:#FF7000"/>
	<stop  offset="1" style="stop-color:#FF4000"/>
</linearGradient>
<path class="st0" d="M24.8,20H22c0-2.8,2.3-5.1,5-5.1c2.8,0,5,2.3,5,5.1c0,2.3-1.5,4.3-3.6,4.9v1.3h-2.8v-2.5c0-0.8,0.6-1.4,1.4-1.4
	c1.2,0,2.3-1,2.3-2.3c0-1.3-1-2.3-2.3-2.3C25.8,17.7,24.8,18.7,24.8,20z M25.9,30.1h2.4v-2.8h-2.4V30.1z M37,11.3v22.3
	c0,0.8-0.6,1.4-1.4,1.4h-3.5v3.5c0,0.8-0.6,1.4-1.4,1.4H6.4C5.6,40,5,39.4,5,38.6V1.4C5,0.6,5.6,0,6.4,0h24.3c0.8,0,1.4,0.6,1.4,1.4
	v8.5h3.5C36.4,9.9,37,10.5,37,11.3z M13.9,3.9c0,0.6,0.5,1.1,1,1.1h7.3c0.6,0,1-0.5,1-1.1V2.8h-9.4V3.9z M29.3,35H18.6
	c-0.8,0-1.4-0.6-1.4-1.4v-3.5h-4.7c-0.6,0-1.1-0.3-1.3-0.9c-0.2-0.5-0.1-1.1,0.3-1.6l5.7-5.8V11.3c0-0.8,0.6-1.4,1.4-1.4h10.8V2.8
	H26v1.1c0,2.2-1.7,3.9-3.8,3.9h-7.3c-2.1,0-3.8-1.7-3.8-3.9V2.8H7.8v34.3h21.5V35z M34.2,12.8H20v9.7c0,0.4-0.1,0.7-0.4,1l-3.7,3.8
	h2.7c0.8,0,1.4,0.6,1.4,1.4v3.5h14.2V12.8z"/>
</svg>
